ffmpeg started on 2016-12-07 at 16:09:39
Report written to "Output/x264/results/ffmpeg/sintelslow13000k.log"
Command line:
Tools/ffmpeg/ffmpeg -benchmark -y -i Input/y4m/sintel.y4m -c:v libx264 -preset slow -b:v 13000k -an Output/x264/encoded/sintelslow13000k.mkv
ffmpeg version N-82227-gdb23fde Copyright (c) 2000-2016 the FFmpeg developers
  built with gcc 5.4.0 (Ubuntu 5.4.0-6ubuntu1~16.04.2) 20160609
  configuration: --prefix=/home/jaroslav/ffmpeg_build --pkg-config-flags=--static --extra-cflags=-I/home/jaroslav/ffmpeg_build/include --extra-ldflags=-L/home/jaroslav/ffmpeg_build/lib --bindir=/home/jaroslav/bin --enable-gpl --enable-libass --enable-libfdk-aac --enable-libfreetype --enable-libmp3lame --enable-libopus --enable-libtheora --enable-libvorbis --enable-libvpx --enable-libx264 --enable-libx265 --enable-nvenc --enable-libmfx --enable-libxvid --enable-libgsm --enable-libopencore-amrnb --enable-version3 --enable-nonfree
  libavutil      55. 35.100 / 55. 35.100
  libavcodec     57. 66.101 / 57. 66.101
  libavformat    57. 57.100 / 57. 57.100
  libavdevice    57.  2.100 / 57.  2.100
  libavfilter     6. 66.100 /  6. 66.100
  libswscale      4.  3.100 /  4.  3.100
  libswresample   2.  4.100 /  2.  4.100
  libpostproc    54.  2.100 / 54.  2.100
Input #0, yuv4mpegpipe, from 'Input/y4m/sintel.y4m':
  Duration: 00:00:20.83, start: 0.000000, bitrate: 2057307 kb/s
    Stream #0:0: Video: rawvideo (I420 / 0x30323449), yuv420p(progressive), 4096x1744, SAR 1:1 DAR 256:109, 24 fps, 24 tbr, 24 tbn, 24 tbc
[libx264 @ 0x3ca01c0] using SAR=1/1
[libx264 @ 0x3ca01c0] using cpu capabilities: MMX2 SSE2Fast SSSE3 SSE4.2 AVX FMA3 AVX2 LZCNT BMI2
[libx264 @ 0x3ca01c0] profile High, level 5.1
[libx264 @ 0x3ca01c0] 264 - core 148 - H.264/MPEG-4 AVC codec - Copyleft 2003-2016 - http://www.videolan.org/x264.html - options: cabac=1 ref=5 deblock=1:0:0 analyse=0x3:0x113 me=hex subme=8 psy=1 psy_rd=1.00:0.00 mixed_ref=1 me_range=16 chroma_me=1 trellis=2 8x8dct=1 cqm=0 deadzone=21,11 fast_pskip=1 chroma_qp_offset=-2 threads=6 lookahead_threads=1 sliced_threads=0 nr=0 decimate=1 interlaced=0 bluray_compat=0 constrained_intra=0 bframes=3 b_pyramid=2 b_adapt=1 b_bias=0 direct=3 weightb=1 open_gop=0 weightp=2 keyint=250 keyint_min=24 scenecut=40 intra_refresh=0 rc_lookahead=50 rc=abr mbtree=1 bitrate=13000 ratetol=1.0 qcomp=0.60 qpmin=0 qpmax=69 qpstep=4 ip_ratio=1.40 aq=1:1.00
Output #0, matroska, to 'Output/x264/encoded/sintelslow13000k.mkv':
  Metadata:
    encoder         : Lavf57.57.100
    Stream #0:0: Video: h264 (libx264) (H264 / 0x34363248), yuv420p, 4096x1744 [SAR 1:1 DAR 256:109], q=-1--1, 13000 kb/s, 24 fps, 1k tbn, 24 tbc
    Metadata:
      encoder         : Lavc57.66.101 libx264
    Side data:
      cpb: bitrate max/min/avg: 0/0/13000000 buffer size: 0 vbv_delay: -1
Stream mapping:
  Stream #0:0 -> #0:0 (rawvideo (native) -> h264 (libx264))
Press [q] to stop, [?] for help
frame=    5 fps=0.0 q=0.0 size=       0kB time=00:00:00.00 bitrate=N/A speed=   0x    frame=   14 fps= 11 q=0.0 size=       0kB time=00:00:00.00 bitrate=N/A speed=   0x    frame=   20 fps= 11 q=0.0 size=       0kB time=00:00:00.00 bitrate=N/A speed=   0x    frame=   29 fps= 12 q=0.0 size=       0kB time=00:00:00.00 bitrate=N/A speed=   0x    frame=   38 fps= 13 q=0.0 size=       0kB time=00:00:00.00 bitrate=N/A speed=   0x    frame=   47 fps= 14 q=0.0 size=       0kB time=00:00:00.00 bitrate=N/A speed=   0x    frame=   56 fps= 14 q=0.0 size=       0kB time=00:00:00.00 bitrate=N/A speed=   0x    frame=   57 fps=8.4 q=0.0 size=       0kB time=00:00:00.00 bitrate=N/A speed=   0x    frame=   58 fps=6.1 q=0.0 size=       0kB time=00:00:00.00 bitrate=N/A speed=   0x    frame=   59 fps=5.0 q=0.0 size=       0kB time=00:00:00.00 bitrate=N/A speed=   0x    frame=   64 fps=4.9 q=32.0 size=       1kB time=00:00:00.04 bitrate= 136.6kbits/s speed=0.00328x    frame=   67 fps=4.7 q=40.0 size=       1kB time=00:00:00.16 bitrate=  35.0kbits/s speed=0.0118x    frame=   71 fps=4.6 q=41.0 size=       1kB time=00:00:00.33 bitrate=  17.6kbits/s speed=0.0218x    frame=   76 fps=4.8 q=40.0 size=       1kB time=00:00:00.54 bitrate=  10.8kbits/s speed=0.0341x    frame=   78 fps=4.7 q=40.0 size=       1kB time=00:00:00.62 bitrate=   9.4kbits/s speed=0.0376x    frame=   83 fps=4.8 q=39.0 size=       1kB time=00:00:00.83 bitrate=   7.0kbits/s speed=0.0482x    frame=   85 fps=4.7 q=39.0 size=       1kB time=00:00:00.91 bitrate=   6.4kbits/s speed=0.051x    frame=   90 fps=4.8 q=38.0 size=       1kB time=00:00:01.12 bitrate=   5.2kbits/s speed=0.0606x    frame=   92 fps=4.8 q=38.0 size=       1kB time=00:00:01.20 bitrate=   4.9kbits/s speed=0.0626x    frame=   96 fps=4.8 q=37.0 size=       1kB time=00:00:01.37 bitrate=   4.3kbits/s speed=0.0685x    frame=   99 fps=4.8 q=37.0 size=       1kB time=00:00:01.50 bitrate=   3.9kbits/s speed=0.0723x    frame=  102 fps=4.8 q=37.0 size=       1kB time=00:00:01.62 bitrate=   3.6kbits/s speed=0.0761x    frame=  105 fps=4.8 q=36.0 size=       1kB time=00:00:01.75 bitrate=   3.4kbits/s speed=0.0799x    frame=  109 fps=4.8 q=36.0 size=       1kB time=00:00:01.91 bitrate=   3.1kbits/s speed=0.0845x    frame=  112 fps=4.8 q=36.0 size=       1kB time=00:00:02.04 bitrate=   2.9kbits/s speed=0.0877x    frame=  114 fps=4.8 q=36.0 size=       1kB time=00:00:02.12 bitrate=   2.8kbits/s speed=0.0888x    frame=  116 fps=4.7 q=36.0 size=       1kB time=00:00:02.20 bitrate=   2.7kbits/s speed=0.0903x    frame=  118 fps=4.7 q=36.0 size=       1kB time=00:00:02.29 bitrate=   2.6kbits/s speed=0.0917x    frame=  120 fps=4.7 q=36.0 size=    5156kB time=00:00:02.37 bitrate=17776.7kbits/s speed=0.0925x    frame=  123 fps=4.7 q=36.0 size=    5156kB time=00:00:02.50 bitrate=16888.2kbits/s speed=0.0947x    frame=  126 fps=4.7 q=35.0 size=    5156kB time=00:00:02.62 bitrate=16084.3kbits/s speed=0.0971x    frame=  128 fps=4.6 q=35.0 size=    5156kB time=00:00:02.70 bitrate=15591.5kbits/s speed=0.0981x    frame=  131 fps=4.6 q=35.0 size=    5156kB time=00:00:02.83 bitrate=14903.8kbits/s speed=0.101x    frame=  134 fps=4.6 q=35.0 size=    5156kB time=00:00:02.95 bitrate=14274.2kbits/s speed=0.102x    frame=  136 fps=4.6 q=35.0 size=    5156kB time=00:00:03.04 bitrate=13880.2kbits/s speed=0.103x    frame=  140 fps=4.6 q=35.0 size=    5156kB time=00:00:03.20 bitrate=13162.2kbits/s speed=0.106x    frame=  141 fps=4.6 q=35.0 size=    5156kB time=00:00:03.25 bitrate=12992.1kbits/s speed=0.106x    frame=  144 fps=4.6 q=34.0 size=    5156kB time=00:00:03.37 bitrate=12511.1kbits/s speed=0.107x    frame=  147 fps=4.6 q=34.0 size=    5156kB time=00:00:03.50 bitrate=12064.4kbits/s speed=0.109x    frame=  150 fps=4.6 q=34.0 size=    5156kB time=00:00:03.62 bitrate=11648.5kbits/s speed=0.11x    frame=  153 fps=4.6 q=34.0 size=    5156kB time=00:00:03.75 bitrate=11260.3kbits/s speed=0.112x    frame=  156 fps=4.6 q=34.0 size=    5156kB time=00:00:03.87 bitrate=10897.2kbits/s speed=0.113x    frame=  162 fps=4.6 q=34.0 size=    6862kB time=00:00:04.12 bitrate=13623.6kbits/s speed=0.118x    frame=  163 fps=4.6 q=34.0 size=    6862kB time=00:00:04.16 bitrate=13486.3kbits/s speed=0.117x    frame=  169 fps=4.6 q=33.0 size=    6862kB time=00:00:04.41 bitrate=12723.1kbits/s speed=0.121x    frame=  171 fps=4.6 q=31.0 size=    6862kB time=00:00:04.50 bitrate=12488.5kbits/s speed=0.122x    frame=  173 fps=4.6 q=33.0 size=    6862kB time=00:00:04.58 bitrate=12262.4kbits/s speed=0.122x    frame=  178 fps=4.6 q=33.0 size=    6862kB time=00:00:04.79 bitrate=11727.7kbits/s speed=0.125x    frame=  181 fps=4.6 q=33.0 size=    6862kB time=00:00:04.91 bitrate=11429.6kbits/s speed=0.125x    frame=  186 fps=4.7 q=33.0 size=    6862kB time=00:00:05.12 bitrate=10965.8kbits/s speed=0.129x    frame=  187 fps=4.6 q=33.0 size=    6862kB time=00:00:05.16 bitrate=10876.7kbits/s speed=0.128x    frame=  190 fps=4.6 q=33.0 size=    6862kB time=00:00:05.29 bitrate=10619.8kbits/s speed=0.129x    frame=  193 fps=4.6 q=33.0 size=    6862kB time=00:00:05.41 bitrate=10374.8kbits/s speed=0.13x    frame=  195 fps=4.6 q=33.0 size=    6862kB time=00:00:05.50 bitrate=10218.3kbits/s speed=0.13x    frame=  198 fps=4.6 q=33.0 size=    6862kB time=00:00:05.62 bitrate=9991.3kbits/s speed=0.131x    frame=  200 fps=4.6 q=33.0 size=    6862kB time=00:00:05.70 bitrate=9846.0kbits/s speed=0.131x    frame=  203 fps=4.6 q=33.0 size=    6862kB time=00:00:05.83 bitrate=9635.0kbits/s speed=0.132x    frame=  206 fps=4.6 q=33.0 size=    6862kB time=00:00:05.95 bitrate=9432.9kbits/s speed=0.133x    frame=  209 fps=4.6 q=33.0 size=    6862kB time=00:00:06.08 bitrate=9239.1kbits/s speed=0.134x    frame=  211 fps=4.6 q=33.0 size=    6862kB time=00:00:06.16 bitrate=9113.3kbits/s speed=0.135x    frame=  215 fps=4.6 q=32.0 size=    6862kB time=00:00:06.33 bitrate=8874.5kbits/s speed=0.137x    frame=  220 fps=4.7 q=32.0 size=   10141kB time=00:00:06.54 bitrate=12697.2kbits/s speed=0.14x    frame=  223 fps=4.7 q=32.0 size=   10141kB time=00:00:06.66 bitrate=12459.2kbits/s speed=0.14x    frame=  225 fps=4.7 q=32.0 size=   10141kB time=00:00:06.75 bitrate=12306.0kbits/s speed=0.14x    frame=  229 fps=4.7 q=32.0 size=   10141kB time=00:00:06.91 bitrate=12008.9kbits/s speed=0.141x    frame=  231 fps=4.7 q=32.0 size=   10141kB time=00:00:07.00 bitrate=11866.6kbits/s speed=0.141x    frame=  234 fps=4.7 q=32.0 size=   10141kB time=00:00:07.12 bitrate=11658.4kbits/s speed=0.142x    frame=  236 fps=4.7 q=32.0 size=   10141kB time=00:00:07.20 bitrate=11524.2kbits/s speed=0.142x    frame=  239 fps=4.6 q=29.0 size=   10141kB time=00:00:07.33 bitrate=11327.8kbits/s speed=0.143x    frame=  241 fps=4.6 q=32.0 size=   10141kB time=00:00:07.41 bitrate=11199.5kbits/s speed=0.143x    frame=  248 fps=4.7 q=32.0 size=   11600kB time=00:00:07.70 bitrate=12326.3kbits/s speed=0.147x    frame=  250 fps=4.7 q=32.0 size=   11600kB time=00:00:07.79 bitrate=12193.4kbits/s speed=0.146x    frame=  256 fps=4.7 q=31.0 size=   11600kB time=00:00:08.04 bitrate=11814.4kbits/s speed=0.148x    frame=  259 fps=4.7 q=31.0 size=   11600kB time=00:00:08.16 bitrate=11633.6kbits/s speed=0.148x    frame=  262 fps=4.7 q=31.0 size=   11600kB time=00:00:08.29 bitrate=11458.2kbits/s speed=0.148x    frame=  266 fps=4.7 q=31.0 size=   11600kB time=00:00:08.45 bitrate=11233.4kbits/s speed=0.149x    frame=  269 fps=4.7 q=31.0 size=   11600kB time=00:00:08.58 bitrate=11069.8kbits/s speed=0.149x    frame=  274 fps=4.7 q=31.0 size=   11600kB time=00:00:08.79 bitrate=10806.7kbits/s speed=0.151x    frame=  276 fps=4.7 q=31.0 size=   11600kB time=00:00:08.87 bitrate=10705.6kbits/s speed=0.151x    frame=  281 fps=4.7 q=31.0 size=   11600kB time=00:00:09.08 bitrate=10460.5kbits/s speed=0.152x    frame=  285 fps=4.7 q=31.0 size=   11600kB time=00:00:09.25 bitrate=10271.7kbits/s speed=0.153x    frame=  289 fps=4.7 q=31.0 size=   11600kB time=00:00:09.41 bitrate=10089.5kbits/s speed=0.154x    frame=  294 fps=4.7 q=31.0 size=   11600kB time=00:00:09.62 bitrate=9871.5kbits/s speed=0.155x    frame=  300 fps=4.8 q=31.0 size=   11600kB time=00:00:09.87 bitrate=9621.6kbits/s speed=0.156x    frame=  303 fps=4.8 q=31.0 size=   11600kB time=00:00:10.00 bitrate=9501.4kbits/s speed=0.157x    frame=  307 fps=4.8 q=31.0 size=   11600kB time=00:00:10.16 bitrate=9345.3kbits/s speed=0.158x    frame=  309 fps=4.8 q=31.0 size=   11600kB time=00:00:10.25 bitrate=9269.7kbits/s speed=0.158x    frame=  313 fps=4.8 q=31.0 size=   11600kB time=00:00:10.41 bitrate=9121.1kbits/s speed=0.158x    frame=  320 fps=4.8 q=30.0 size=   11600kB time=00:00:10.70 bitrate=8873.2kbits/s speed=0.16x    frame=  324 fps=4.8 q=30.0 size=   11600kB time=00:00:10.87 bitrate=8737.0kbits/s speed=0.161x    frame=  328 fps=4.8 q=30.0 size=   15944kB time=00:00:11.04 bitrate=11827.7kbits/s speed=0.163x    frame=  332 fps=4.9 q=30.0 size=   15944kB time=00:00:11.20 bitrate=11652.6kbits/s speed=0.164x    frame=  336 fps=4.9 q=30.0 size=   15944kB time=00:00:11.37 bitrate=11481.5kbits/s speed=0.165x    frame=  340 fps=4.9 q=30.0 size=   15944kB time=00:00:11.54 bitrate=11315.4kbits/s speed=0.166x    frame=  344 fps=4.9 q=30.0 size=   15944kB time=00:00:11.70 bitrate=11155.0kbits/s speed=0.167x    frame=  348 fps=4.9 q=30.0 size=   15944kB time=00:00:11.87 bitrate=10998.1kbits/s speed=0.167x    frame=  352 fps=4.9 q=30.0 size=   15944kB time=00:00:12.04 bitrate=10845.6kbits/s speed=0.168x    frame=  356 fps=4.9 q=30.0 size=   15944kB time=00:00:12.20 bitrate=10698.2kbits/s speed=0.169x    frame=  360 fps=5.0 q=30.0 size=   15944kB time=00:00:12.37 bitrate=10553.8kbits/s speed=0.17x    frame=  366 fps=5.0 q=29.0 size=   15944kB time=00:00:12.62 bitrate=10344.8kbits/s speed=0.173x    frame=  368 fps=5.0 q=29.0 size=   15944kB time=00:00:12.70 bitrate=10277.3kbits/s speed=0.173x    frame=  375 fps=5.1 q=29.0 size=   15944kB time=00:00:13.00 bitrate=10046.4kbits/s speed=0.175x    frame=  377 fps=5.0 q=29.0 size=   15944kB time=00:00:13.08 bitrate=9982.7kbits/s speed=0.175x    frame=  381 fps=5.1 q=29.0 size=   15944kB time=00:00:13.25 bitrate=9856.9kbits/s speed=0.176x    frame=  385 fps=5.1 q=29.0 size=   15944kB time=00:00:13.41 bitrate=9734.2kbits/s speed=0.177x    frame=  389 fps=5.1 q=28.0 size=   15944kB time=00:00:13.58 bitrate=9615.3kbits/s speed=0.178x    frame=  392 fps=5.1 q=28.0 size=   15944kB time=00:00:13.70 bitrate=9527.6kbits/s speed=0.179x    frame=  397 fps=5.1 q=28.0 size=   15944kB time=00:00:13.91 bitrate=9384.5kbits/s speed=0.18x    frame=  400 fps=5.1 q=28.0 size=   15944kB time=00:00:14.04 bitrate=9301.0kbits/s speed=0.18x    frame=  408 fps=5.2 q=28.0 size=   15944kB time=00:00:14.37 bitrate=9085.5kbits/s speed=0.182x    frame=  416 fps=5.2 q=27.0 size=   15944kB time=00:00:14.70 bitrate=8879.9kbits/s speed=0.184x    frame=  423 fps=5.3 q=27.0 size=   20133kB time=00:00:15.00 bitrate=10994.8kbits/s speed=0.186x    frame=  428 fps=5.2 q=27.0 size=   20133kB time=00:00:15.20 bitrate=10844.5kbits/s speed=0.186x    frame=  432 fps=5.3 q=27.0 size=   20133kB time=00:00:15.37 bitrate=10726.7kbits/s speed=0.187x    frame=  436 fps=5.3 q=27.0 size=   20133kB time=00:00:15.54 bitrate=10611.4kbits/s speed=0.187x    frame=  440 fps=5.3 q=27.0 size=   20133kB time=00:00:15.70 bitrate=10499.3kbits/s speed=0.188x    frame=  445 fps=5.3 q=27.0 size=   20133kB time=00:00:15.91 bitrate=10361.5kbits/s speed=0.189x    frame=  448 fps=5.3 q=27.0 size=   20133kB time=00:00:16.04 bitrate=10280.7kbits/s speed=0.189x    frame=  452 fps=5.3 q=27.0 size=   20133kB time=00:00:16.20 bitrate=10175.4kbits/s speed=0.189x    frame=  455 fps=5.3 q=27.0 size=   20133kB time=00:00:16.33 bitrate=10097.6kbits/s speed=0.189x    frame=  461 fps=5.2 q=27.0 size=   20133kB time=00:00:16.58 bitrate=9945.3kbits/s speed=0.189x    frame=  467 fps=5.2 q=27.0 size=   20133kB time=00:00:16.83 bitrate=9797.6kbits/s speed=0.188x    frame=  473 fps=5.3 q=27.0 size=   20133kB time=00:00:17.08 bitrate=9654.3kbits/s speed=0.19x    frame=  475 fps=5.2 q=27.0 size=   20133kB time=00:00:17.16 bitrate=9607.0kbits/s speed=0.19x    frame=  481 fps=5.3 q=27.0 size=   23836kB time=00:00:17.41 bitrate=11210.6kbits/s speed=0.191x    frame=  484 fps=5.3 q=27.0 size=   23836kB time=00:00:17.54 bitrate=11130.8kbits/s speed=0.191x    frame=  488 fps=5.3 q=27.0 size=   23836kB time=00:00:17.70 bitrate=11026.4kbits/s speed=0.192x    frame=  492 fps=5.3 q=27.0 size=   23836kB time=00:00:17.87 bitrate=10923.4kbits/s speed=0.192x    frame=  496 fps=5.3 q=27.0 size=   23836kB time=00:00:18.04 bitrate=10822.3kbits/s speed=0.192x    frame=  500 fps=5.3 q=27.0 size=   23836kB time=00:00:18.20 bitrate=10723.7kbits/s speed=0.193x    frame=  500 fps=4.9 q=-1.0 Lsize=   29465kB time=00:00:20.70 bitrate=11655.6kbits/s speed=0.202x    
video:29460kB audio:0kB subtitle:0kB other streams:0kB global headers:0kB muxing overhead: 0.016727%
bench: utime=350.916s
bench: maxrss=1826308kB
[libx264 @ 0x3ca01c0] frame I:8     Avg QP:22.05  size:212298
[libx264 @ 0x3ca01c0] frame P:269   Avg QP:27.21  size: 73368
[libx264 @ 0x3ca01c0] frame B:223   Avg QP:25.61  size: 39156
[libx264 @ 0x3ca01c0] consecutive B-frames: 37.0%  8.4%  6.6% 48.0%
[libx264 @ 0x3ca01c0] mb I  I16..4: 25.0% 70.3%  4.7%
[libx264 @ 0x3ca01c0] mb P  I16..4: 21.8% 17.4%  0.4%  P16..4: 31.4%  4.4%  1.8%  0.0%  0.0%    skip:22.7%
[libx264 @ 0x3ca01c0] mb B  I16..4:  1.3%  2.5%  0.2%  B16..8: 34.6%  3.5%  0.5%  direct: 1.9%  skip:55.5%  L0:42.9% L1:52.5% BI: 4.6%
[libx264 @ 0x3ca01c0] final ratefactor: 24.19
[libx264 @ 0x3ca01c0] 8x8 transform intra:47.1% inter:87.7%
[libx264 @ 0x3ca01c0] direct mvs  spatial:98.7% temporal:1.3%
[libx264 @ 0x3ca01c0] coded y,uvDC,uvAC intra: 19.2% 30.8% 3.5% inter: 8.6% 10.6% 0.2%
[libx264 @ 0x3ca01c0] i16 v,h,dc,p: 24% 26%  9% 40%
[libx264 @ 0x3ca01c0] i8 v,h,dc,ddl,ddr,vr,hd,vl,hu: 14% 12% 21%  7%  9%  9% 11%  7% 10%
[libx264 @ 0x3ca01c0] i4 v,h,dc,ddl,ddr,vr,hd,vl,hu: 14% 14%  8%  7% 15% 12% 15%  7%  9%
[libx264 @ 0x3ca01c0] i8c dc,h,v,p: 63% 21% 11%  5%
[libx264 @ 0x3ca01c0] Weighted P-Frames: Y:1.1% UV:0.7%
[libx264 @ 0x3ca01c0] ref P L0: 66.5% 18.3%  8.9%  3.3%  2.4%  0.7%
[libx264 @ 0x3ca01c0] ref B L0: 89.9%  7.2%  2.4%  0.5%
[libx264 @ 0x3ca01c0] ref B L1: 97.6%  2.4%
[libx264 @ 0x3ca01c0] kb/s:11583.82
